# xmcd
# 
# Track frame offsets:
#     150
#     12530
#     29875
#     39670
#     54810
#     72615
#     82910
#     93512
#     105627
#     118752
#     134037
#     144452
#     155030
#     166432
#     177152
#     200072
#     219995
#     231475
# 
# Disc length: 3262
# 
# Revision: 1
# Processed by: cddbd v1.5.2PL0 Copyright (c) Steve Scherf et al.
# Submitted via: fre:ac v1.0.31
# 
DISCID=110cbc12
DTITLE=Red Sovine - Greatest Hits
DYEAR=0
DGENRE=Country
TTITLE0=Why Baby Why
TTITLE1=Little Rosa
TTITLE2=Hold Everything (Till I Get Home)
TTITLE3=Dream House For Sale
TTITLE4=Giddyup Go
TTITLE5=Six Days On The Road
TTITLE6=Class Of 49
TTITLE7=I Didn't Jump The Fence
TTITLE8=Walk Through This World With Me
TTITLE9=Phantom 309
TTITLE10=In Your Heart
TTITLE11=Tell Maud I Slipped
TTITLE12=Who Am I
TTITLE13=I Know You're Married (But I Love You)
TTITLE14=Teddy Bear
TTITLE15=Little Joe
TTITLE16=The Days Of Me And You
TTITLE17=It'll Come Back
EXTD=
EXTT0=
EXTT1=
EXTT2=
EXTT3=
EXTT4=
EXTT5=
EXTT6=
EXTT7=
EXTT8=
EXTT9=
EXTT10=
EXTT11=
EXTT12=
EXTT13=
EXTT14=
EXTT15=
EXTT16=
EXTT17=
PLAYORDER=
